<svg xmlns="http://www.w3.org/2000/svg" viewBox="0 0 512 512">
    <path d="M 256,0 C 114.6146,0 0,114.61137 0,255.9978 0,397.38198 114.6146,512 256,512 397.3854,512 512,397.38198 512,255.9978 512,114.61137 397.3854,0 256,0 Z m -51.66997,89.174014 h 31.59275 v 50.637896 h 24.06267 V 89.174014 h 31.59717 v 51.241876 c 23.55445,1.46044 41.08749,5.95117 56.39168,17.25992 19.78709,14.6156 18.74735,40.0078 18.30493,46.06171 -0.44016,6.0539 -3.09587,17.71622 -8.41622,25.23959 -5.30906,7.5324 -18.30051,15.06438 -18.30051,15.06438 0,0 15.35188,3.24401 26.13479,11.36555 10.76936,8.12153 18.74979,22.44249 18.29608,43.40769 -0.43339,20.9652 -4.71186,41.7825 -23.75406,55.06859 -19.05122,13.28834 -39.42313,15.65185 -48.42957,16.82787 -4.44454,0.58462 -12.05823,1.20116 -20.22272,1.6797 v 51.32564 h -31.59714 v -50.49241 h -24.0627 v 50.49241 h -31.59715 v -50.49241 h -62.15386 l 6.49402,-37.94976 h 18.89569 c 6.35191,0 9.00422,-0.59149 11.66101,-3.09927 2.65679,-2.51231 3.24921,-6.34622 3.24921,-9.45217 V 191.99284 c 0,-8.18925 -0.66564,-10.40508 -4.43074,-14.61031 -3.7651,-4.21426 -12.62207,-4.76576 -17.60835,-4.76576 h -18.26084 v -32.80486 h 62.15386 z m 51.52449,85.625046 c -9.89129,-0.14447 -19.93174,0.74065 -19.93174,0.74065 v 60.97181 c 0.002,0 14.76601,0.44467 26.28027,0 11.52103,-0.44468 23.77367,-3.10192 32.62437,-7.97528 8.85972,-4.87111 13.87654,-12.5394 13.58761,-24.05807 -0.30247,-11.51641 -7.97287,-21.26202 -20.96337,-25.25282 -12.99502,-3.98628 -21.69908,-4.27957 -31.59714,-4.42629 z m 3.61513,92.72299 c -12.24949,-0.14539 -23.54247,0.43646 -23.54247,0.43646 v 67.76113 c 0,0 20.96076,0.44745 34.99185,-0.58636 14.01755,-1.03381 28.48922,-4.57523 35.72372,-8.56603 7.22998,-3.98627 15.94186,-10.1867 15.94186,-25.68485 0,-15.50497 -10.33444,-21.99617 -16.24167,-24.94863 -5.90046,-2.95698 -19.04261,-6.93919 -34.68764,-7.97526 -3.91295,-0.25846 -8.10248,-0.388 -12.18565,-0.43646 z" />
</svg>
