<svg xmlns="http://www.w3.org/2000/svg" viewBox="0 0 512 512">
    <path d="M 439.73597,96.534151 378.0863,127.85761 80.387206,279.07432 A 178.68878,178.19808 0 0 1 78.870877,255.98136 177.34574,176.85873 0 0 1 342.69081,101.80514 L 377.978,83.875155 383.24183,81.196456 A 216.61871,216.02385 0 0 0 39.381281,256.04617 q 0,8.25211 0.628195,16.43942 A 39.402945,39.29474 0 0 1 18.607548,310.46257 L 0,319.92443 v 44.13366 l 54.782874,-27.84547 v 0 l 17.741071,-9.0298 17.481135,-8.87858 v 0 L 403.84225,158.83543 439.10781,140.92705 512,103.87896 V 59.766892 Z" />
    <path d="M 512,148.03424 107.8328,353.2569 72.567266,371.20849 0,408.08376 v 44.09041 L 72.069044,415.55818 133.71873,384.23473 431.72109,232.802 a 180.76832,180.27191 0 0 1 1.51633,23.24417 177.34574,176.85873 0 0 1 -264.07987,154.15463 l -2.16619,1.14491 -38.25486,19.44215 A 216.61871,216.02385 0 0 0 472.61871,256.04617 c 0,-5.55181 -0.2166,-11.10363 -0.6282,-16.59064 a 39.424605,39.316341 0 0 1 21.38025,-37.97699 L 512,192.01669 Z" />
</svg>
